PathFileType	4	(X/Y/Z)	C:\Users\WrightLab\Desktop\Jo\P5V116.trc
DataRate	CameraRate	NumFrames	NumMarkers	Units	OrigDataRate	OrigDataStartFrame	OrigNumFrames
100.00	100.00	       16	19	mm	100.00	1	       492
Frame#	Time	Headset_Front			Headset_Back			Headset_Left			Headset_Right			Left_Shoulder			Right_Shoulder			Sternum			C7			Left Elbow			Right Elbow			Left Wrist			Right Wrist			Left ASIS			Right ASIS			S2			Left Knee			Right Knee			Left Ankle			Right Ankle			
		X1	Y1	Z1	X2	Y2	Z2	X3	Y3	Z3	X4	Y4	Z4	X5	Y5	Z5	X6	Y6	Z6	X7	Y7	Z7	X8	Y8	Z8	X9	Y9	Z9	X10	Y10	Z10	X11	Y11	Z11	X12	Y12	Z12	X13	Y13	Z13	X14	Y14	Z14	X15	Y15	Z15	X16	Y16	Z16	X17	Y17	Z17	X18	Y18	Z18	X19	Y19	Z19	

1	0.000	-375.35788	1578.79089	-889.96912	27.06220	1395.75598	-735.82391							-231.30367	1505.86169	-1162.39795				-243.11185	1303.23071	-959.50525							-486.15912	1158.09827	-1155.19482	-32.60463	1126.85950	-901.72729	-420.62680	1031.54968	-960.42316	-100.38449	914.17981	-959.55389	-369.21136	926.58331	-994.42926	-157.50462	961.69037	-1244.07349	-56.36460	478.09750	-1021.24829	-412.03226	517.37787	-908.30652	-86.88593	65.47491	-1172.19006	-383.11145	101.13063	-1026.53381	
2	0.010	-379.00430	1578.52258	-887.78894										-233.14822	1505.55261	-1158.99023				-246.25014	1302.75610	-957.14172							-487.73819	1157.57471	-1154.50305	-36.22141	1126.36658	-897.21387	-424.58554	1030.73022	-960.69464	-102.66817	913.95758	-955.69598	-370.86871	926.31372	-993.90320	-159.06691	961.73529	-1241.22009	-58.86563	478.60269	-1019.94415	-417.13269	518.43677	-906.32751	-87.33047	65.71774	-1172.34778	-394.06668	101.52996	-1023.85449	
3	0.020	-382.70520	1578.14685	-885.60132	-285.66534	1507.65979	-791.86005							-235.17934	1505.20471	-1155.97144				-249.54277	1302.03455	-954.41803							-489.20383	1157.63379	-1154.20886	-39.35754	1126.18005	-893.57379	-428.08810	1030.46082	-959.94025	-106.45632	913.35022	-953.59070	-373.50500	925.78284	-992.40375	-160.81894	962.05066	-1238.82166	-60.61029	478.39828	-1019.03497	-421.78708	519.88373	-903.46777	-86.88593	65.47491	-1172.19006	-405.05408	101.56588	-1019.43213	
4	0.030	-386.38028	1578.03113	-883.59308	-288.87888	1506.66113	-788.79974							-237.27092	1505.40747	-1153.24695				-252.67799	1301.56299	-952.06293							-491.72385	1157.74805	-1153.86853	-43.15640	1126.36938	-890.05426	-431.79153	1029.97681	-959.54565	-109.66216	913.55835	-950.79114	-375.88498	925.61743	-991.30707	-162.74535	962.09589	-1235.95862	-63.35934	477.99203	-1017.83539	-426.73090	521.10400	-901.02417	-86.14139	65.98475	-1173.09827	-415.17587	101.22428	-1015.40637	
5	0.040	-390.23270	1577.93811	-881.42828	-294.43887	1506.44470	-785.95941							-239.53323	1505.07703	-1149.63123				-256.65094	1302.01025	-949.32440							-494.02200	1157.86389	-1153.77686	-46.83501	1126.54797	-885.03632	-436.00848	1028.90222	-958.16809	-112.11967	913.31079	-948.22418	-377.19952	924.64764	-989.23523	-164.68721	962.00769	-1232.62708	-66.62706	477.23007	-1016.70581	-431.58496	522.25323	-898.61041	-87.33047	65.71774	-1172.34778				
6	0.050	-393.96872	1577.59827	-878.70905	-297.64172	1506.35596	-783.33130							-242.00847	1504.86646	-1146.66296				-259.36011	1301.66455	-946.91132							-495.76050	1157.59058	-1152.70300	-50.40877	1126.82129	-881.35822	-438.71210	1028.25415	-956.69409	-114.95724	913.02563	-945.19550	-380.53360	925.18524	-988.12738	-166.67151	961.76080	-1229.27600	-68.24455	477.82162	-1015.86481	-436.13901	522.50330	-897.35016	-86.44854	66.70631	-1169.96887	-437.15146	101.75636	-1007.66492	
7	0.060	-397.86078	1577.54944	-876.54211	-302.87646	1506.23022	-779.83997							-244.51273	1504.73096	-1143.56433				-263.10513	1300.64160	-943.25781							-497.88000	1157.34827	-1151.27356	-54.38624	1126.65430	-876.89807	-443.72208	1027.33789	-955.79791	-118.96598	912.50519	-942.25507	-382.87866	924.35120	-987.20605	-168.68553	962.16705	-1226.20813	-71.80059	477.41025	-1014.04932	-441.07706	523.69708	-896.41394	-86.30713	67.45284	-1171.15771				
8	0.070	-401.67377	1577.01624	-872.79297										-247.15129	1504.80408	-1140.80481				-268.59467	1300.73718	-940.82648							-500.32492	1157.44580	-1150.13635	-58.28226	1126.78271	-873.35974	-446.85870	1026.94727	-954.33148	-122.32230	911.64423	-939.15302	-387.61282	925.29071	-985.37140				-75.20791	476.76120	-1012.64252	-446.51868	523.57111	-895.26605							
9	0.080	-405.59698	1577.05798	-870.34851										-249.86383	1504.39294	-1137.19800				-271.00525	1300.62122	-936.94312							-502.96335	1157.55554	-1149.12280	-62.78027	1126.95105	-868.67017	-451.09149	1026.64063	-952.66199	-125.35669	911.29230	-935.37457	-389.49573	923.24518	-982.92206				-77.79818	476.77155	-1011.11316	-452.29691	523.72003	-893.44727							
10	0.090	-409.68576	1576.72192	-867.62738										-252.62997	1504.25037	-1133.39075				-275.37308	1300.50391	-934.64801							-505.51303	1156.83679	-1146.73901	-66.29903	1127.33936	-864.59747	-454.88983	1025.25281	-951.12787	-128.57715	911.05615	-931.79138	-393.41162	923.44977	-980.90155				-81.24030	475.84796	-1008.91370	-457.45221	523.49194	-892.36334							
11	0.100	-413.49048	1576.64258	-863.80585	-178.20322	961.49243	-1212.67175							-255.43713	1504.19128	-1129.47961	-470.27878	1429.12170	-1044.15662	-278.78809	1299.04895	-930.70074							-508.06018	1157.29102	-1144.94238	-70.76941	1127.07751	-860.05334	-458.49786	1024.61389	-948.29633	-132.98311	910.07147	-928.05182	-397.70062	923.53882	-978.74780				-86.19881	475.22263	-1007.57300	-463.63583	524.08215	-892.02783	-86.32414	67.55031	-1166.59460				
12	0.110	-417.69919	1576.15442	-860.88135													-474.26208	1428.76184	-1041.74829	-283.97971	1298.86096	-927.53052							-510.98325	1156.71326	-1142.92639	-74.99431	1127.07080	-855.63416	-463.56631	1024.73865	-947.78406	-136.46602	910.15564	-924.26868	-400.17612	922.50067	-976.73450				-89.60468	474.57541	-1006.95526	-469.20660	523.73987	-891.92072	-86.32414	67.55031	-1166.59460				
13	0.120	-421.62122	1576.01758	-856.94122	-261.52850	1503.39307	-1121.18921							-183.38542	960.90228	-1205.30884	-477.91818	1428.07190	-1039.11475	-288.52029	1299.36121	-924.08624							-513.94250	1156.49304	-1140.76843	-79.63461	1126.94214	-851.46954	-467.07190	1024.41760	-945.17017	-139.76335	909.02094	-920.53760	-404.36533	921.36957	-973.40289				-94.54594	474.11743	-1004.07043	-475.01654	522.48944	-890.88049	-87.23862	68.57850	-1167.88159				
14	0.130	-425.78586	1575.51147	-853.25574													-481.27405	1428.46460	-1036.10229	-291.84641	1298.01904	-920.21417							-517.24481	1156.18445	-1138.03284	-83.44926	1127.11426	-847.60559	-471.55844	1023.50531	-942.66895	-143.83495	909.06531	-917.07098	-409.42743	921.82990	-970.86786				-98.51642	473.31555	-1001.75964	-481.44714	522.35010	-892.17407							
15	0.140	-429.68130	1575.45508	-849.49603	-88.66237	67.64785	-1169.26208										-485.07251	1427.72021	-1032.70605	-296.21634	1297.89380	-916.59979							-519.99420	1156.03027	-1135.20020	-88.23722	1126.34668	-843.25690	-475.20544	1022.81433	-939.31769	-147.96771	908.99884	-913.24597	-415.14136	921.80048	-968.43707				-102.12266	473.65503	-1000.80573	-486.81183	520.78931	-890.51929							
16	0.150	-433.87967	1574.68225	-845.17896	-89.55833	67.56262	-1167.80310										-489.00668	1427.89392	-1029.90137	-301.24991	1297.78101	-912.78833	-271.85074	1502.94861	-1110.58569				-524.10199	1156.02466	-1132.57312	-93.17793	1126.04456	-838.48676	-479.38910	1021.77808	-936.64874	-151.76286	907.95789	-908.72437	-418.49133	920.78925	-965.42981				-107.89133	472.78162	-998.59784	-493.15958	520.32324	-890.07990							
